<svg width="61" height="23" viewBox="0 0 61 23" fill="none" xmlns="http://www.w3.org/2000/svg">
<path d="M0.53 23V0.729999H7.364C12.3053 0.729999 14.776 2.65667 14.776 6.51C14.776 7.75667 14.4587 8.83333 13.824 9.74C13.1893 10.6467 12.328 11.2133 11.24 11.44C12.5093 11.6213 13.4953 12.1767 14.198 13.106C14.9233 14.0127 15.2973 15.2027 15.32 16.676C15.32 20.892 12.566 23 7.058 23H0.53ZM7.568 19.94C9.064 19.94 10.1293 19.6113 10.764 18.954C11.3987 18.2967 11.716 17.424 11.716 16.336C11.716 15.2253 11.3647 14.4207 10.662 13.922C9.982 13.4233 8.894 13.174 7.398 13.174H4.066V19.94H7.568ZM11.308 6.782C11.308 4.78733 10.0727 3.79 7.602 3.79H4.066V10.114H7.33C9.982 10.114 11.308 9.00333 11.308 6.782ZM21.304 6.85L21.372 7.836C23.208 6.99733 24.6473 6.578 25.69 6.578C27.526 6.578 28.8747 7.122 29.736 8.21C30.62 9.27533 31.062 10.9527 31.062 13.242V23H27.56V13.344C27.56 12.256 27.3673 11.406 26.982 10.794C26.5967 10.182 25.996 9.876 25.18 9.876C24.364 9.876 23.106 10.2727 21.406 11.066V23H17.904V6.85H21.304ZM35.618 23V0.389999H39.12V13.344L41.364 13.106C42.6333 11.474 43.744 9.706 44.696 7.802L45.172 6.85H48.98C47.552 9.86467 45.9653 12.3807 44.22 14.398C45.6707 16.4607 47.1327 18.8973 48.606 21.708L49.286 23H45.308C44.1973 20.5973 42.928 18.2967 41.5 16.098L39.12 16.336V23H35.618ZM55.95 23V18.07H60.88V23H55.95Z" fill="#D22C93"/>
</svg>
